<svg width="1316" height="313" viewBox="0 0 1316 313" fill="none" xmlns="http://www.w3.org/2000/svg">
<path d="M103.944 34.6V134H76.112V56.894H38.34V134H10.65V34.6H103.944ZM161.545 135.278C153.309 135.278 145.878 133.574 139.251 130.166C132.624 126.758 127.418 122.025 123.631 115.966C119.939 109.907 118.093 103.044 118.093 95.376C118.093 87.8027 119.939 80.9867 123.631 74.928C127.418 68.8693 132.577 64.1833 139.109 60.87C145.736 57.462 153.214 55.758 161.545 55.758C169.876 55.758 177.354 57.462 183.981 60.87C190.608 64.1833 195.767 68.8693 199.459 74.928C203.151 80.892 204.997 87.708 204.997 95.376C204.997 103.044 203.151 109.907 199.459 115.966C195.767 122.025 190.608 126.758 183.981 130.166C177.354 133.574 169.876 135.278 161.545 135.278ZM161.545 113.836C166.278 113.836 170.16 112.227 173.189 109.008C176.218 105.695 177.733 101.151 177.733 95.376C177.733 89.696 176.218 85.2467 173.189 82.028C170.16 78.8093 166.278 77.2 161.545 77.2C156.812 77.2 152.93 78.8093 149.901 82.028C146.872 85.2467 145.357 89.696 145.357 95.376C145.357 101.151 146.872 105.695 149.901 109.008C152.93 112.227 156.812 113.836 161.545 113.836ZM294.648 57.036V134H267.668V78.478H248.214L247.646 90.264C247.267 100.299 246.273 108.582 244.664 115.114C243.054 121.646 240.404 126.758 236.712 130.45C233.02 134.047 227.955 135.846 221.518 135.846C218.204 135.846 213.85 135.231 208.454 134L209.59 111.99C211.294 112.179 212.43 112.274 212.998 112.274C215.932 112.274 218.157 111.327 219.672 109.434C221.186 107.541 222.228 105.032 222.796 101.908C223.364 98.6893 223.742 94.4293 223.932 89.128L225.068 57.036H294.648ZM312.779 57.036H339.617V97.364L371.851 57.036H396.701V134H369.721V93.53L337.771 134H312.779V57.036ZM483.57 78.478H458.862V134H432.024V78.478H407.174V57.036H483.57V78.478ZM494.024 57.036H520.862V97.364L553.096 57.036H577.946V134H550.966V93.53L519.016 134H494.024V57.036ZM669.784 57.036V134H642.946V106.594C637.266 109.529 630.734 110.996 623.35 110.996C612.558 110.996 604.464 108.582 599.068 103.754C593.672 98.926 590.974 91.3053 590.974 80.892V57.036H617.954V79.046C617.954 83.306 618.901 86.3827 620.794 88.276C622.782 90.0747 625.717 90.974 629.598 90.974C634.521 90.974 638.97 89.9327 642.946 87.85V57.036H669.784ZM765.984 95.66C765.984 95.8493 765.842 98.074 765.558 102.334H709.61C710.746 106.31 712.923 109.387 716.142 111.564C719.455 113.647 723.573 114.688 728.496 114.688C732.188 114.688 735.359 114.167 738.01 113.126C740.755 112.085 743.5 110.381 746.246 108.014L760.446 122.782C752.967 131.113 742.033 135.278 727.644 135.278C718.65 135.278 710.746 133.574 703.93 130.166C697.114 126.758 691.812 122.025 688.026 115.966C684.334 109.907 682.488 103.044 682.488 95.376C682.488 87.8027 684.286 81.034 687.884 75.07C691.576 69.0113 696.64 64.278 703.078 60.87C709.515 57.462 716.757 55.758 724.804 55.758C732.472 55.758 739.43 57.3673 745.678 60.586C751.926 63.71 756.848 68.3013 760.446 74.36C764.138 80.324 765.984 87.424 765.984 95.66ZM724.946 74.928C720.78 74.928 717.278 76.1113 714.438 78.478C711.692 80.8447 709.941 84.0633 709.184 88.134H740.708C739.95 84.0633 738.152 80.8447 735.312 78.478C732.566 76.1113 729.111 74.928 724.946 74.928ZM818.866 135.278C810.346 135.278 802.726 133.574 796.004 130.166C789.283 126.758 784.029 122.025 780.242 115.966C776.55 109.907 774.704 103.044 774.704 95.376C774.704 87.708 776.55 80.892 780.242 74.928C784.029 68.8693 789.283 64.1833 796.004 60.87C802.726 57.462 810.346 55.758 818.866 55.758C827.576 55.758 835.102 57.6513 841.444 61.438C847.787 65.13 852.284 70.2893 854.934 76.916L834.06 87.566C830.558 80.6553 825.446 77.2 818.724 77.2C813.896 77.2 809.873 78.8093 806.654 82.028C803.53 85.2467 801.968 89.696 801.968 95.376C801.968 101.151 803.53 105.695 806.654 109.008C809.873 112.227 813.896 113.836 818.724 113.836C825.446 113.836 830.558 110.381 834.06 103.47L854.934 114.12C852.284 120.747 847.787 125.953 841.444 129.74C835.102 133.432 827.576 135.278 818.866 135.278ZM902.287 106.594H893.199V134H866.219V57.036H893.199V85.436H902.855L921.741 57.036H950.283L924.439 93.956L951.987 134H920.179L902.287 106.594ZM990.927 55.758C1003.71 55.758 1013.46 58.6927 1020.18 64.562C1026.9 70.3367 1030.26 79.2353 1030.26 91.258V134H1005.13V124.06C1001.25 131.539 993.672 135.278 982.407 135.278C976.443 135.278 971.284 134.237 966.929 132.154C962.574 130.071 959.261 127.279 956.989 123.776C954.812 120.179 953.723 116.108 953.723 111.564C953.723 104.275 956.516 98.642 962.101 94.666C967.686 90.5953 976.301 88.56 987.945 88.56H1003.28C1002.81 80.4187 997.364 76.348 986.951 76.348C983.259 76.348 979.52 76.9633 975.733 78.194C971.946 79.33 968.728 80.9393 966.077 83.022L956.989 64.704C961.249 61.864 966.408 59.6867 972.467 58.172C978.62 56.5627 984.774 55.758 990.927 55.758ZM989.933 118.238C993.057 118.238 995.802 117.481 998.169 115.966C1000.54 114.451 1002.24 112.227 1003.28 109.292V102.618H991.637C983.78 102.618 979.851 105.221 979.851 110.428C979.851 112.795 980.75 114.688 982.549 116.108C984.348 117.528 986.809 118.238 989.933 118.238ZM1118.91 57.036V134H1094.91V113.126H1082.7L1069.07 134H1040.53L1057.57 109.434C1052.46 107.162 1048.53 104.085 1045.78 100.204C1043.13 96.228 1041.81 91.4947 1041.81 86.004C1041.81 76.8213 1045.21 69.7213 1052.03 64.704C1058.85 59.592 1068.22 57.036 1080.15 57.036H1118.91ZM1080.71 78.336C1073.14 78.336 1069.35 81.2233 1069.35 86.998C1069.35 90.0273 1070.25 92.252 1072.05 93.672C1073.95 95.092 1076.79 95.802 1080.57 95.802H1094.91V78.336H1080.71Z" fill="white"/>
<path d="M905.342 255.594H896.254V283H869.274V206.036H896.254V234.436H905.91L924.796 206.036H953.338L927.494 242.956L955.042 283H923.234L905.342 255.594ZM1041.76 206.036L1008.54 286.124C1004.65 295.591 999.921 302.217 994.336 306.004C988.75 309.885 981.934 311.826 973.888 311.826C969.817 311.826 965.699 311.163 961.534 309.838C957.463 308.607 954.15 306.951 951.594 304.868L960.966 285.982C962.48 287.402 964.279 288.491 966.362 289.248C968.539 290.1 970.716 290.526 972.894 290.526C975.45 290.526 977.532 290.005 979.142 288.964C980.846 287.923 982.266 286.266 983.402 283.994L950.458 206.036H978.148L997.034 253.038L1016.06 206.036H1041.76ZM1094.92 283L1081.15 262.836L1066.38 283H1037.13L1066.38 244.518L1037.98 206.036H1068.37L1082 225.49L1096.2 206.036H1124.74L1096.34 243.524L1125.74 283H1094.92ZM1134.83 206.036H1161.67V234.578H1189.36V206.036H1216.34V283H1189.36V256.02H1161.67V283H1134.83V206.036ZM1306.96 206.036V283H1282.96V262.126H1270.75L1257.11 283H1228.57L1245.61 258.434C1240.5 256.162 1236.57 253.085 1233.83 249.204C1231.17 245.228 1229.85 240.495 1229.85 235.004C1229.85 225.821 1233.26 218.721 1240.07 213.704C1246.89 208.592 1256.26 206.036 1268.19 206.036H1306.96ZM1268.76 227.336C1261.18 227.336 1257.4 230.223 1257.4 235.998C1257.4 239.027 1258.3 241.252 1260.1 242.672C1261.99 244.092 1264.83 244.802 1268.62 244.802H1282.96V227.336H1268.76Z" fill="white"/>
<path d="M1149.24 96.6942C1147.11 95.0939 1147.11 91.9061 1149.24 90.3058L1165.59 77.9783C1168.23 75.9916 1172 77.8719 1172 81.1725V105.828C1172 109.128 1168.23 111.008 1165.59 109.022L1149.24 96.6942Z" fill="white"/>
<rect x="1167" y="34" width="141" height="120" rx="13" fill="white"/>
<rect x="10" y="183" width="792" height="120" rx="13" fill="white"/>
<path d="M815.762 239.306C817.885 240.906 817.885 244.094 815.762 245.694L799.408 258.022C796.772 260.008 793 258.128 793 254.827V230.172C793 226.872 796.772 224.992 799.408 226.978L815.762 239.306Z" fill="white"/>
</svg>
