<svg width="53" height="53" viewBox="0 0 53 53" fill="none" xmlns="http://www.w3.org/2000/svg">
<g clip-path="url(#clip0_39:232)">
<path d="M26.1364 52.2727C40.5711 52.2727 52.2727 40.5711 52.2727 26.1364C52.2727 11.7016 40.5711 0 26.1364 0C11.7016 0 0 11.7016 0 26.1364C0 40.5711 11.7016 52.2727 26.1364 52.2727Z" fill="#4D76A1"/>
<path fill-rule="evenodd" clip-rule="evenodd" d="M25.1491 37.5993H27.2005C27.2005 37.5993 27.8202 37.5313 28.1365 37.1902C28.4277 36.8772 28.4184 36.2892 28.4184 36.2892C28.4184 36.2892 28.3783 33.5366 29.6558 33.1313C30.9152 32.732 32.5323 35.7916 34.2464 36.968C35.5426 37.8584 36.5275 37.6631 36.5275 37.6631L41.1106 37.5993C41.1106 37.5993 43.5081 37.4516 42.3713 35.5666C42.2782 35.4124 41.7093 34.1721 38.9637 31.6236C36.09 28.9563 36.4748 29.3877 39.9365 24.7739C42.0447 21.964 42.8876 20.2485 42.6243 19.5138C42.3732 18.814 40.8227 18.999 40.8227 18.999L35.6623 19.0311C35.6623 19.0311 35.2798 18.9789 34.996 19.1485C34.7188 19.3149 34.5404 19.7025 34.5404 19.7025C34.5404 19.7025 33.7237 21.8769 32.6344 23.726C30.3365 27.628 29.4178 27.8339 29.0422 27.5917C28.1687 27.027 28.3867 25.3232 28.3867 24.1128C28.3867 20.3315 28.9602 18.7548 27.2699 18.3467C26.709 18.2111 26.2962 18.1217 24.8617 18.1072C23.0204 18.0881 21.462 18.1128 20.5795 18.5452C19.9925 18.8326 19.5396 19.4733 19.8155 19.5101C20.1565 19.5557 20.929 19.7183 21.3385 20.276C21.8673 20.9954 21.8487 22.6111 21.8487 22.6111C21.8487 22.6111 22.1524 27.0624 21.1391 27.6154C20.4435 27.9947 19.4893 27.2203 17.4407 23.6804C16.391 21.8671 15.5985 19.8628 15.5985 19.8628C15.5985 19.8628 15.4457 19.4882 15.1732 19.2878C14.8424 19.0451 14.3802 18.9678 14.3802 18.9678L9.47655 18.9999C9.47655 18.9999 8.74041 19.0204 8.47019 19.3405C8.22978 19.6252 8.45109 20.2141 8.45109 20.2141C8.45109 20.2141 12.2901 29.1958 16.637 33.722C20.6229 37.8719 25.1491 37.5993 25.1491 37.5993Z" fill="white"/>
</g>
<defs>
<clipPath id="clip0_39:232">
<rect width="52.2727" height="52.2727" fill="white"/>
</clipPath>
</defs>
</svg>
